# xmcd
#
# Track frame offsets:
#	150
#	16565
#	34375
#	52645
#	67995
#	86557
#	107600
#	126187
#	154655
#	178052
#	193060
#	205512
#
# Disc length: 2932 seconds
# Revision: 2
# Processed by: cddbd v1.5.2PL0 Copyright (c) Steve Scherf et al.
# Submitted via: dBpowerAMP V12.0
#
DISCID=8f0b720c
DTITLE=The Carter Brothers - Cedarhouse
DYEAR=2001
DGENRE=Country
TTITLE0=Shelby Street
TTITLE1=Spot - The Dog
TTITLE2=Why You Been Gone So Long
TTITLE3=Fungus Amungus
TTITLE4=Pretty Polly
TTITLE5=Yellow Moon
TTITLE6=Cedarhouse
TTITLE7=The Lick
TTITLE8=Chestnut Mare
TTITLE9=Take a Whiff on Me
TTITLE10=John Henry
TTITLE11=Tree-O
EXTD=
EXTT0=
EXTT1=
EXTT2=
EXTT3=
EXTT4=
EXTT5=
EXTT6=
EXTT7=
EXTT8=
EXTT9=
EXTT10=
EXTT11=
PLAYORDER=
